<svg xmlns="http://www.w3.org/2000/svg" xmlns:xlink="http://www.w3.org/1999/xlink" version="1.1" fill-rule="evenodd" fill="none" stroke="none" stroke-linecap="square" stroke-miterlimit="10" overflow="hidden" preserveAspectRatio="none" style="position: absolute; top: 0px; left: 0px;" width="188px" height="309px" viewBox="0 0 188 309">
<path fill="#9CD4EC" fill-opacity="1" d="M 379474 245738 C 383267 248294 387343 250366 391521 252237 L 391203 252923 C 386959 251018 382799 248846 378922 246239 378789 246907 377569 247994 377218 248294 375681 249681 370368 252171 369165 249063 368997 248612 369064 248094 369265 247659 369549 247058 370050 246540 370618 246206 371988 245437 373926 245103 375480 245303 375848 245387 377034 245387 377920 245571 377318 245120 376717 244685 376115 244234 374545 243048 373058 241778 371637 240408 371287 241076 370368 241895 370067 242162 368513 243566 363200 246005 362047 242931 361829 242480 361896 241962 362097 241561 362381 240926 362882 240408 363467 240074 364820 239322 366758 238971 368312 239171 368663 239205 369749 239255 370618 239389 370284 239054 369950 238720 369632 238369 368129 236765 366809 234961 365639 233090 365154 233758 363701 234493 363266 234710 361161 235763 354595 236916 354194 233173 354127 232622 354344 232087 354695 231669 355179 231084 355898 230650 356616 230466 358354 230015 360576 230282 362230 230884 362631 231051 364035 231485 364954 231953 364820 231719 364687 231485 364570 231252 363350 229029 362364 226690 361612 224284 360944 224719 359256 224852 358755 224835 356433 224952 350016 223399 351136 219840 351303 219355 351721 218921 352205 218687 352874 218353 353726 218236 354411 218386 356165 218687 358103 219706 359323 220959 359607 221243 360509 222028 361161 222747 360827 221477 360610 220174 360409 218854 360242 217383 360192 215947 360225 214510 360242 213724 360259 212956 360292 212204 359457 212505 357669 212254 357134 212170 354611 211786 348045 208695 350033 205103 350317 204585 350852 204251 351437 204084 352272 203883 353158 203933 353926 204234 355697 204919 357552 206490 358638 208127 358872 208528 359824 209764 360359 210767 360443 209096 360509 207442 360476 205804 360426 204368 360326 202931 360008 201544 359941 201243 359875 200942 359858 200642 358939 200926 357184 200725 356683 200591 354127 200207 347560 197099 349549 193524 349833 193006 350384 192655 350952 192505 351754 192287 352656 192354 353408 192638 355230 193323 357118 194911 358137 196531 358220 196682 358404 196916 358605 197216 357535 194643 356149 192204 354478 189965 354227 189614 353976 189280 353709 188962 353191 189514 351437 189965 350935 190082 348663 190650 342030 190332 342464 186606 342531 186055 342865 185570 343300 185253 343901 184802 344670 184535 345438 184518 347193 184451 349365 185136 350785 186189 350986 186306 351537 186657 352122 187024 352005 186890 351888 186757 351771 186606 350819 185570 349816 184551 348780 183482 347744 182463 346691 181477 345605 180524 345071 180040 344503 179572 343935 179121 343483 179739 341762 180324 341278 180491 339056 181226 332422 181410 332556 177667 332573 177149 332873 176631 333291 176264 333859 175763 334594 175445 335330 175362 336900 175211 338788 175579 340259 176297 338605 175061 336950 173824 335380 172471 334845 171986 334277 171585 333776 171001 333508 170733 333258 170483 332990 170232 L 332539 169714 C 332122 170249 330651 170817 330284 170900 328312 171535 322564 171702 322681 168478 322698 167993 322949 167542 323299 167241 323784 166807 324436 166523 325087 166456 326608 166289 328496 166740 329866 167509 330050 167659 330752 167993 331386 168361 331219 168143 331052 167926 330885 167709 L 330284 166790 C 330183 166640 330083 166489 329983 166322 L 329732 165838 C 328997 164568 328546 163164 328178 161744 327894 160324 327677 158870 327560 157417 327560 157366 327543 157316 327543 157266 326959 157517 325421 157250 324987 157166 322999 156815 317886 154175 319557 151402 319791 151001 320225 150733 320676 150633 321311 150483 322030 150549 322614 150800 324035 151385 325472 152688 326257 154008 326424 154292 327042 155144 327493 155896 327326 153507 327326 151151 327059 148778 326975 147976 326858 147208 326725 146439 326324 146773 324970 146690 324603 146673 322999 146556 318755 144952 319807 142613 320025 142279 320292 142045 320643 141911 321111 141744 321679 141744 322180 141878 323333 142212 324569 143097 325305 144067 325488 144300 326157 145036 326541 145671 326457 145253 326357 144885 326257 144551 325906 143331 325438 142178 324870 141059 324319 140975 323416 140391 323132 140157 321829 139271 319022 135679 321127 134225 321428 134008 321879 133975 322197 134108 322698 134142 323183 134426 323533 134860 324352 135696 324954 137099 325154 138302 325137 138736 325538 140675 325204 140992 325772 142095 326240 143248 326591 144417 326641 144618 326691 144802 326741 145002 326875 144434 327059 143866 327076 143649 327326 142462 328061 141143 328964 140307 329348 139973 329849 139772 330384 139672 330735 139639 331169 139722 331420 139956 333375 141644 330234 144885 328847 145687 328563 145904 327627 146372 327059 146406 327209 147174 327326 147943 327410 148711 327677 151067 327694 153373 327811 155696 328061 154910 328429 154041 328529 153724 329014 152254 330117 150683 331370 149831 331904 149430 332606 149196 333224 149196 333709 149196 334193 149363 334511 149697 336767 152053 332322 155729 330467 156531 330050 156715 328563 157333 327911 157166 327928 157233 327928 157316 327961 157383 328061 158820 328262 160257 328579 161661 328930 163031 329365 164417 330150 165637 L 330350 166122 C 330434 166272 330534 166423 330635 166573 L 331219 167458 C 331437 167759 331670 168027 331888 168311 L 332071 168544 C 331854 167692 331754 166523 331687 166205 331403 164668 331604 162747 332289 161360 332573 160775 333057 160257 333625 159940 334043 159789 334544 159622 334995 159773 338087 160758 335981 166105 334728 167709 334461 168043 333525 169213 332873 169463 L 333308 169931 334077 170750 C 334578 171201 335129 171702 335664 172170 337903 174025 340225 175679 342548 177433 342748 177567 342899 177701 343066 177834 343233 177935 343366 178102 343500 178135 343183 177166 343032 175495 342949 175027 342615 173290 342865 171084 343651 169480 344001 168812 344536 168210 345188 167859 345672 167592 346240 167475 346758 167642 350334 168778 347911 174961 346458 176798 346157 177200 345138 178553 344336 178837 344870 179271 345405 179706 345940 180174 347042 181126 348095 182112 349131 183131 350167 184200 351186 185253 352138 186272 352539 186707 352907 187141 353275 187592 353108 186590 353074 185203 353041 184785 352857 183014 353291 180842 354227 179305 354545 178687 355146 178102 355864 177801 356332 177584 356917 177517 357418 177717 360894 179138 358003 185103 356399 186824 356065 187191 354912 188428 354160 188662 354411 188996 354661 189330 354912 189664 356650 192003 358120 194543 359223 197250 359407 197734 359591 198202 359758 198687 359774 197634 359941 196414 359958 195997 360042 194058 360844 191769 362063 190316 362581 189614 363317 189113 364119 188895 364687 188745 365322 188762 365840 189063 369365 191201 365255 197149 363317 198753 362799 199121 361128 200458 360309 200391 360409 200742 360509 201143 360576 201460 360894 202864 360994 204334 361044 205788 361078 206874 361061 207943 361027 209013 361228 208428 361412 207926 361479 207693 362030 205821 363367 203833 364904 202613 365555 202129 366408 201811 367226 201794 367828 201828 368446 201962 368864 202379 371771 205253 366357 210082 364035 211151 363517 211385 361763 212204 360927 212070 360877 212889 360844 213674 360844 214493 360810 215930 360860 217367 361027 218787 361144 219806 361345 220842 361596 221861 361662 221093 361796 220341 361863 220057 361963 218319 362782 216231 363935 214911 364436 214359 365121 213942 365856 213758 366374 213624 366959 213674 367410 213975 370535 216013 366591 221293 364720 222680 364319 222964 362999 223933 362214 224067 362949 226440 363935 228745 365205 230934 365205 231034 365255 231135 365305 231218 365255 230249 365322 229096 365305 228712 365271 226941 365856 224785 366892 223315 367310 222714 367978 222196 368730 221945 369198 221778 369816 221744 370317 221995 373626 223699 370234 229447 368513 231034 368162 231369 366959 232455 366174 232688 367327 234543 368647 236314 370150 237918 370518 238319 370885 238704 371270 239088 371069 238202 371002 236866 370952 236498 370735 234927 371053 232973 371804 231602 372122 231034 372657 230516 373241 230232 373676 230032 374194 229948 374662 230132 377736 231285 375330 236632 373977 238186 373693 238520 372740 239606 372072 239856 373475 241227 374979 242496 376550 243666 377118 244067 377619 244451 378154 244836 377886 244067 377703 243131 377602 242747 377151 241243 377168 239288 377719 237818 377937 237200 378371 236665 378922 236247 379323 235963 379825 235813 380292 235980 383534 236598 381947 242246 380844 244000 380643 244301 380025 245253 379474 245738 Z"></path>
</svg>
